<?xml version="1.0" standalone="no"?>
<!DOCTYPE svg PUBLIC "-//W3C//DTD SVG 20010904//EN"
 "http://www.w3.org/TR/2001/REC-SVG-20010904/DTD/svg10.dtd">
<svg version="1.0" xmlns="http://www.w3.org/2000/svg"
 width="439.000000pt" height="439.000000pt" viewBox="0 0 439.000000 439.000000"
 preserveAspectRatio="xMidYMid meet">
<metadata>
Created by potrace 1.14, written by Peter Selinger 2001-2017
</metadata>
<g transform="translate(0.000000,439.000000) scale(0.100000,-0.100000)"
fill="#000000" stroke="none">
<path d="M0 2195 l0 -2195 2195 0 2195 0 0 2195 0 2195 -2195 0 -2195 0 0
-2195z m2069 1840 c86 -47 133 -128 134 -230 0 -33 -7 -76 -15 -96 -24 -57
-83 -114 -140 -139 -45 -19 -64 -22 -133 -17 l-80 6 -562 -325 c-493 -285
-563 -329 -577 -358 -14 -30 -16 -110 -16 -691 0 -579 2 -661 16 -690 14 -30
90 -77 624 -385 403 -233 619 -363 639 -385 33 -38 47 -101 38 -163 -9 -49
-53 -92 -103 -98 -36 -5 -82 20 -704 380 -366 211 -681 398 -700 414 -19 16
-49 53 -65 83 l-30 54 -3 771 c-2 771 -2 772 19 830 38 102 63 119 691 479
l576 330 6 46 c11 84 84 170 172 204 59 22 150 14 213 -20z m1092 -597 c387
-223 679 -398 699 -418 20 -20 47 -58 60 -85 l25 -50 0 -775 0 -775 -24 -53
c-14 -31 -43 -70 -71 -95 -27 -23 -304 -190 -617 -370 l-569 -328 -18 -50
c-23 -67 -74 -122 -138 -149 -43 -18 -65 -22 -123 -18 -114 7 -192 67 -231
175 -69 196 134 398 331 328 l39 -14 536 302 c294 166 547 314 563 329 l27 26
0 686 0 686 -27 29 c-16 17 -188 122 -383 234 -859 495 -854 492 -877 527 -28
40 -32 144 -9 189 19 36 72 63 112 57 17 -2 330 -177 695 -388z m-441 -429
c11 -25 11 -43 0 -98 -14 -74 -40 -140 -61 -157 -8 -6 -237 -70 -509 -142
-272 -73 -553 -147 -625 -166 l-130 -35 -17 21 c-41 47 4 247 62 278 29 15
1209 328 1241 329 21 1 30 -6 39 -30z m742 -196 c31 -36 29 -57 -13 -143 -42
-89 -76 -132 -120 -156 -15 -7 -289 -83 -610 -168 -321 -84 -775 -205 -1008
-267 l-424 -113 -18 23 c-28 34 -24 62 21 150 46 93 100 144 174 165 108 30
1962 524 1972 525 6 1 18 -7 26 -16z m-345 -558 l17 -35 -45 -91 c-26 -54 -59
-105 -80 -124 -39 -35 -53 -40 -284 -100 -172 -45 -1753 -464 -1777 -471 -23
-7 -58 30 -58 61 0 35 65 163 104 203 17 19 43 40 58 48 14 7 340 97 725 199
384 101 829 220 988 264 160 43 300 79 313 80 16 1 27 -8 39 -34z m-81 -497
c15 -29 15 -40 4 -98 -16 -85 -42 -145 -72 -164 -27 -17 -1186 -326 -1238
-329 -31 -2 -35 1 -47 34 -10 31 -9 49 7 113 11 42 24 84 29 94 26 48 -12 37
1016 311 143 38 266 70 272 70 7 1 20 -13 29 -31z"/>
<path d="M1887 3966 c-46 -17 -61 -29 -88 -73 -42 -67 -23 -162 41 -217 73
-61 183 -45 243 36 21 28 33 102 23 143 -10 40 -73 103 -114 115 -47 13 -59
12 -105 -4z"/>
<path d="M2347 685 c-52 -18 -83 -49 -103 -101 -41 -107 41 -224 156 -224 185
0 235 244 65 321 -48 22 -67 23 -118 4z"/>
</g>
</svg>
